<svg xmlns="http://www.w3.org/2000/svg" xmlns:xlink="http://www.w3.org/1999/xlink" id="Layer_1" x="0px" y="0px" viewBox="0 0 2005.1 831.4" style="enable-background:new 0 0 2005.1 831.4;" xml:space="preserve">
<style type="text/css">
	.st0{fill:#E9384D;}
</style>
<path class="st0" d="M178.8,360.9v427.6C71.4,748.7,0.1,646.2,0,531.6V360.9H178.8z"></path>
<path class="st0" d="M488.3,360.9c94.2,118.5,74.6,291-43.9,385.2c-22.1,17.6-46.8,31.7-73.3,41.7"></path>
<path class="st0" d="M484,367.9h-94.2c-10.3,0-18.7,8.4-18.7,18.7l0,0v171.6c-0.5,53.1-44,95.7-97.1,95.2  c-52.3-0.5-94.6-42.8-95.2-95.2V379.7c0-10.3-8.3-18.7-18.7-18.7l0,0H68.9c-5.9,0-11.5,2.8-15,7.5c-90.1,121.6-64.6,293.2,57,383.3  s293.2,64.6,383.3-57c69.9-94.2,72-222.5,5.2-319C495.9,370.8,490.2,367.8,484,367.9z"></path>
<path class="st0" d="M1266.7,269.6C1254.9,118.7,1123,6,972.2,17.8C837.7,28.3,730.9,135.1,720.4,269.6c-0.5,7-0.8,14-0.8,21.1v0.5  c0.2,116.5,74.1,220.1,184.2,258.4V323.3c0.1,0.2,0.3,0.4,0.4,0.7v-54.4c0.5-49.4,41-89,90.4-88.5c48.6,0.5,88,39.8,88.5,88.5v30.7  c0.2-0.5,0.3-0.9,0.4-1.4v250.7c110.1-38.3,183.9-141.9,184.2-258.4v-0.5C1267.5,283.6,1267.2,276.5,1266.7,269.6z"></path>
<rect x="719.6" y="274" class="st0" width="184.5" height="531.7"></rect>
<path class="st0" d="M1924.8,97c-107-107-280.5-106.9-387.5,0.1c-51.3,51.4-80.2,121-80.2,193.6c0,5,0.1,9.9,0.4,14.8  c2.7,52.1,20.4,102.3,50.8,144.7c33,46,79.4,80.8,132.9,99.4V290.7c0-50.4,40.2-91.3,89.8-91.3s89.8,40.9,89.8,91.3v258.9  c105.1-36.5,177.7-133,183.8-244.1c0.3-4.9,0.4-9.8,0.4-14.8C2005.2,218.1,1976.3,148.3,1924.8,97z"></path>
<path class="st0" d="M1820.9,433.5v99.4c-58.2,20.1-121.4,20.1-179.6,0v-99.4L1820.9,433.5z"></path>
<path class="st0" d="M1820.9,532.9v91.4h-179.6v-91.4C1699.5,553,1762.7,553,1820.9,532.9L1820.9,532.9z"></path>
<rect x="1457.1" y="433.5" class="st0" width="184.2" height="190.8"></rect>
<rect x="1820.9" y="433.5" class="st0" width="184.2" height="190.8"></rect>
<rect x="1082.9" y="274" class="st0" width="184.6" height="531.7"></rect>
<path class="st0" d="M1641.3,262v543.7h-184.2V281.2c0-10.5,8.3-19.1,18.6-19.1c0,0,0,0,0.1,0L1641.3,262z"></path>
<path class="st0" d="M2005.1,292.4v513.3h-184.2V274h165.5C1996.7,273.9,2005,282.2,2005.1,292.4  C2005,292.4,2005,292.4,2005.1,292.4L2005.1,292.4z"></path>
<path class="st0" d="M548,360.9v166.5c0.2,73.6-28.6,144.4-80.2,196.9c-27.3,27.8-60.3,49.5-96.6,63.6v-427L548,360.9L548,360.9z"></path>
<path class="st0" d="M23.3,16.9h133.4c12.5,0,22.7,10.2,22.7,22.7V173c0,12.5-10.2,22.7-22.7,22.7H23.3c-12.5,0-22.7-10.2-22.7-22.7  V39.6C0.5,27.1,10.7,16.9,23.3,16.9z"></path>
<path class="st0" d="M395.3,16.9h129.6c13.6,0,24.6,11,24.6,24.6v129.6c0,13.6-11,24.6-24.6,24.6H395.3c-13.6,0-24.6-11-24.6-24.6  V41.5C370.7,27.9,381.7,16.9,395.3,16.9z"></path>
</svg>